<?xml version="1.0" encoding="UTF-8"?>
<svg width="140px" height="138px" viewBox="0 0 140 138" version="1.1" xmlns="http://www.w3.org/2000/svg" xmlns:xlink="http://www.w3.org/1999/xlink">
    <!-- Generator: Sketch 50.2 (55047) - http://www.bohemiancoding.com/sketch -->
    <title>noun_456602_cc</title>
    <desc>Created with Sketch.</desc>
    <defs></defs>
    <g id="Page-1" stroke="none" stroke-width="1" fill="none" fill-rule="evenodd">
        <g id="noun_456602_cc">
            <path d="M77.6721409,138 C77.778292,137.661836 77.8925052,137.335749 78,137 L69,137 C71.9386384,137 74.8329352,137.342995 77.6721409,138 Z" id="Shape"></path>
            <path d="M60.3278591,138 C63.1670648,137.342995 66.0613616,137 69,137 L60,137 C60.1088385,137.335749 60.221708,137.661836 60.3278591,138 Z" id="Shape"></path>
            <polygon id="Shape" fill="#01AA6C" fill-rule="nonzero" points="69 137 69.012 137 69.006 137"></polygon>
            <rect id="Rectangle-path" fill="#01AA6C" fill-rule="nonzero" x="139" y="137" width="1" height="1"></rect>
            <g id="Group" fill="#01AA6C" fill-rule="nonzero">
                <rect id="Rectangle-path" x="139.389515" y="3.30444" width="1" height="1"></rect>
                <path d="M26.0602637,0.09453 C28.2180134,1.79196 30.4496395,3.54556 34.8487726,3.54556 C39.2479057,3.54556 41.4795319,1.79059 43.6372816,0.09453 C43.6777045,0.06302 43.7167336,0.03151 43.7571565,0 L43.3640781,0 C41.2760232,1.64126 39.0806383,3.30444 34.8487726,3.30444 C30.616907,3.30444 28.4215221,1.64126 26.3334672,0 L25.9403887,0 C25.9794178,0.03151 26.0198408,0.06302 26.0602637,0.09453 Z" id="Shape"></path>
                <path d="M60.9076425,0.09453 C63.0653922,1.79196 65.2970183,3.54556 69.6961514,3.54556 C74.0952845,3.54556 76.3269106,1.79059 78.4846603,0.09453 C78.5250833,0.06302 78.5641123,0.03151 78.6045353,0 L78.210063,0 C76.122008,1.64126 73.9266232,3.30444 69.6947575,3.30444 C65.4628918,3.30444 63.267507,1.64126 61.179452,0 L60.7863736,0 C60.8267966,0.03151 60.8672195,0.06302 60.9076425,0.09453 Z" id="Shape"></path>
                <path d="M8.9083839,0 L8.51530547,0 C6.42725054,1.64126 4.23186568,3.30444 -1.13686838e-13,3.30444 L-1.13686838e-13,3.54556 C4.39913309,3.54556 6.63075923,1.79059 8.78850892,0.09453 C8.82893188,0.06302 8.86935484,0.03151 8.9083839,0 Z" id="Shape"></path>
                <path d="M130.601006,0.09453 C132.758756,1.79196 134.990382,3.54556 139.389515,3.54556 L139.389515,3.30444 C135.157649,3.30444 132.963658,1.64126 130.87421,5.68434189e-14 L130.481131,5.68434189e-14 C130.521554,0.03151 130.561977,0.06302 130.601006,0.09453 Z" id="Shape"></path>
                <path d="M95.7550212,0.09453 C97.9127709,1.79196 100.144397,3.54556 104.54353,3.54556 C108.942663,3.54556 111.174289,1.79059 113.332039,0.09453 C113.372462,0.06302 113.411491,0.03151 113.451914,0 L113.058836,0 C110.970781,1.64126 108.775396,3.30444 104.54353,3.30444 C100.311664,3.30444 98.1162796,1.64126 96.0282247,0 L95.6337523,0 C95.6741753,0.03151 95.7145983,0.06302 95.7550212,0.09453 Z" id="Shape"></path>
                <rect id="Rectangle-path" x="139.389515" y="9.82838" width="1" height="1"></rect>
                <path d="M121.96722,2.97838 C117.568086,2.97838 115.33646,4.73335 113.178711,6.42941 C111.054414,8.10081 108.856242,9.82838 104.54353,9.82838 C100.230819,9.82838 98.0340398,8.10081 95.9083497,6.42941 C93.7506,4.73198 91.5189739,2.97838 87.1198408,2.97838 C82.7207077,2.97838 80.4890815,4.73335 78.3313318,6.42941 C76.2070356,8.10081 74.008863,9.82838 69.6961514,9.82838 C65.3834398,9.82838 63.186661,8.10081 61.0609709,6.42941 C58.9032212,4.73198 56.6715951,2.97838 52.272462,2.97838 C47.8733289,2.97838 45.6417028,4.73335 43.4839531,6.42941 C41.3596569,8.10081 39.1614842,9.82838 34.8487726,9.82838 C30.536061,9.82838 28.3378884,8.10081 26.2135922,6.42941 C24.0558425,4.73198 21.8242164,2.97838 17.4250833,2.97838 C13.0259502,2.97838 10.794324,4.73335 8.63657435,6.42941 C6.51088425,8.10081 4.31410549,9.82838 0.00139389515,9.82838 L0.00139389515,10.0695 C4.40052699,10.0695 6.63215312,8.31453 8.78990282,6.61847 C10.9155929,4.94707 13.1123717,3.2195 17.4250833,3.2195 C21.7377949,3.2195 23.9359675,4.94707 26.0602637,6.61847 C28.2180134,8.3159 30.4496395,10.0695 34.8487726,10.0695 C39.2479057,10.0695 41.4795319,8.31453 43.6372816,6.61847 C45.7615778,4.94707 47.9597504,3.2195 52.272462,3.2195 C56.5851736,3.2195 58.7819524,4.94707 60.9076425,6.61847 C63.0653922,8.3159 65.2970183,10.0695 69.6961514,10.0695 C74.0952845,10.0695 76.3269106,8.31453 78.4846603,6.61847 C80.6089565,4.94707 82.8071292,3.2195 87.1198408,3.2195 C91.4325524,3.2195 93.6293311,4.94707 95.7550212,6.61847 C97.9127709,8.3159 100.144397,10.0695 104.54353,10.0695 C108.942663,10.0695 111.174289,8.31453 113.332039,6.61847 C115.456335,4.94707 117.654508,3.2195 121.96722,3.2195 C126.279931,3.2195 128.47671,4.94707 130.6024,6.61847 C132.76015,8.3159 134.991776,10.0695 139.390909,10.0695 L139.390909,9.82838 C135.078197,9.82838 132.881419,8.10081 130.755728,6.42941 C128.596585,4.73198 126.364959,2.97838 121.96722,2.97838 Z" id="Shape"></path>
                <rect id="Rectangle-path" x="139.389515" y="16.35232" width="1" height="1"></rect>
                <path d="M121.96722,9.50232 C117.568086,9.50232 115.33646,11.25729 113.178711,12.95335 C111.054414,14.62475 108.856242,16.35232 104.54353,16.35232 C100.230819,16.35232 98.0340398,14.62475 95.9083497,12.95335 C93.7506,11.25592 91.5189739,9.50232 87.1198408,9.50232 C82.7207077,9.50232 80.4890815,11.25729 78.3313318,12.95335 C76.2070356,14.62475 74.008863,16.35232 69.6961514,16.35232 C65.3834398,16.35232 63.186661,14.62475 61.0609709,12.95335 C58.9032212,11.25592 56.6715951,9.50232 52.272462,9.50232 C47.8733289,9.50232 45.6417028,11.25729 43.4839531,12.95335 C41.3596569,14.62475 39.1614842,16.35232 34.8487726,16.35232 C30.536061,16.35232 28.3378884,14.62475 26.2135922,12.95335 C24.0558425,11.25592 21.8242164,9.50232 17.4250833,9.50232 C13.0259502,9.50232 10.794324,11.25729 8.63657435,12.95335 C6.51088425,14.62475 4.31410549,16.35232 0.00139389515,16.35232 L0.00139389515,16.59344 C4.40052699,16.59344 6.63215312,14.83847 8.78990282,13.14241 C10.9155929,11.47101 13.1123717,9.74344 17.4250833,9.74344 C21.7377949,9.74344 23.9359675,11.47101 26.0602637,13.14241 C28.2180134,14.83984 30.4496395,16.59344 34.8487726,16.59344 C39.2479057,16.59344 41.4795319,14.83847 43.6372816,13.14241 C45.7615778,11.47101 47.9597504,9.74344 52.272462,9.74344 C56.5851736,9.74344 58.7819524,11.47101 60.9076425,13.14241 C63.0653922,14.83984 65.2970183,16.59344 69.6961514,16.59344 C74.0952845,16.59344 76.3269106,14.83847 78.4846603,13.14241 C80.6089565,11.47101 82.8071292,9.74344 87.1198408,9.74344 C91.4325524,9.74344 93.6293311,11.47101 95.7550212,13.14241 C97.9127709,14.83984 100.144397,16.59344 104.54353,16.59344 C108.942663,16.59344 111.174289,14.83847 113.332039,13.14241 C115.456335,11.47101 117.654508,9.74344 121.96722,9.74344 C126.279931,9.74344 128.47671,11.47101 130.6024,13.14241 C132.76015,14.83984 134.991776,16.59344 139.390909,16.59344 L139.390909,16.35232 C135.078197,16.35232 132.881419,14.62475 130.755728,12.95335 C128.596585,11.25592 126.364959,9.50232 121.96722,9.50232 Z" id="Shape"></path>
                <rect id="Rectangle-path" x="139.389515" y="22.87626" width="1" height="1"></rect>
                <path d="M121.96722,16.02626 C117.568086,16.02626 115.33646,17.78123 113.178711,19.47729 C111.054414,21.14869 108.856242,22.87626 104.54353,22.87626 C100.230819,22.87626 98.0340398,21.14869 95.9083497,19.47729 C93.7506,17.77986 91.5189739,16.02626 87.1198408,16.02626 C82.7207077,16.02626 80.4890815,17.78123 78.3313318,19.47729 C76.2070356,21.14869 74.008863,22.87626 69.6961514,22.87626 C65.3834398,22.87626 63.186661,21.14869 61.0609709,19.47729 C58.9032212,17.77986 56.6715951,16.02626 52.272462,16.02626 C47.8733289,16.02626 45.6417028,17.78123 43.4839531,19.47729 C41.3596569,21.14869 39.1614842,22.87626 34.8487726,22.87626 C30.536061,22.87626 28.3378884,21.14869 26.2135922,19.47729 C24.0558425,17.77986 21.8242164,16.02626 17.4250833,16.02626 C13.0259502,16.02626 10.794324,17.78123 8.63657435,19.47729 C6.51088425,21.14869 4.31410549,22.87626 0.00139389515,22.87626 L0.00139389515,23.11738 C4.40052699,23.11738 6.63215312,21.36241 8.78990282,19.66635 C10.9155929,17.99495 13.1123717,16.26738 17.4250833,16.26738 C21.7377949,16.26738 23.9359675,17.99495 26.0602637,19.66635 C28.2180134,21.36378 30.4496395,23.11738 34.8487726,23.11738 C39.2479057,23.11738 41.4795319,21.36241 43.6372816,19.66635 C45.7615778,17.99495 47.9597504,16.26738 52.272462,16.26738 C56.5851736,16.26738 58.7819524,17.99495 60.9076425,19.66635 C63.0653922,21.36378 65.2970183,23.11738 69.6961514,23.11738 C74.0952845,23.11738 76.3269106,21.36241 78.4846603,19.66635 C80.6089565,17.99495 82.8071292,16.26738 87.1198408,16.26738 C91.4325524,16.26738 93.6293311,17.99495 95.7550212,19.66635 C97.9127709,21.36378 100.144397,23.11738 104.54353,23.11738 C108.942663,23.11738 111.174289,21.36241 113.332039,19.66635 C115.456335,17.99495 117.654508,16.26738 121.96722,16.26738 C126.279931,16.26738 128.47671,17.99495 130.6024,19.66635 C132.76015,21.36378 134.991776,23.11738 139.390909,23.11738 L139.390909,22.87626 C135.078197,22.87626 132.881419,21.14869 130.755728,19.47729 C128.596585,17.77986 126.364959,16.02626 121.96722,16.02626 Z" id="Shape"></path>
                <rect id="Rectangle-path" x="139.389515" y="29.39883" width="1" height="1"></rect>
                <path d="M121.96722,22.54883 C117.568086,22.54883 115.33646,24.3038 113.178711,25.99986 C111.054414,27.67126 108.856242,29.39883 104.54353,29.39883 C100.230819,29.39883 98.0340398,27.67126 95.9083497,25.99986 C93.7506,24.30243 91.5189739,22.54883 87.1198408,22.54883 C82.7207077,22.54883 80.4890815,24.3038 78.3313318,25.99986 C76.2070356,27.67126 74.008863,29.39883 69.6961514,29.39883 C65.3834398,29.39883 63.186661,27.67126 61.0609709,25.99986 C58.9032212,24.30243 56.6715951,22.54883 52.272462,22.54883 C47.8733289,22.54883 45.6417028,24.3038 43.4839531,25.99986 C41.3596569,27.67126 39.1614842,29.39883 34.8487726,29.39883 C30.536061,29.39883 28.3378884,27.67126 26.2135922,25.99986 C24.0558425,24.30243 21.8242164,22.54883 17.4250833,22.54883 C13.0259502,22.54883 10.794324,24.3038 8.63657435,25.99986 C6.51088425,27.67126 4.31410549,29.39883 0.00139389515,29.39883 L0.00139389515,29.63995 C4.40052699,29.63995 6.63215312,27.88498 8.78990282,26.18892 C10.9155929,24.51752 13.1123717,22.78995 17.4250833,22.78995 C21.7377949,22.78995 23.9359675,24.51752 26.0602637,26.18892 C28.2180134,27.88635 30.4496395,29.63995 34.8487726,29.63995 C39.2479057,29.63995 41.4795319,27.88498 43.6372816,26.18892 C45.7615778,24.51752 47.9597504,22.78995 52.272462,22.78995 C56.5851736,22.78995 58.7819524,24.51752 60.9076425,26.18892 C63.0653922,27.88635 65.2970183,29.63995 69.6961514,29.63995 C74.0952845,29.63995 76.3269106,27.88498 78.4846603,26.18892 C80.6089565,24.51752 82.8071292,22.78995 87.1198408,22.78995 C91.4325524,22.78995 93.6293311,24.51752 95.7550212,26.18892 C97.9127709,27.88635 100.144397,29.63995 104.54353,29.63995 C108.942663,29.63995 111.174289,27.88498 113.332039,26.18892 C115.456335,24.51752 117.654508,22.78995 121.96722,22.78995 C126.279931,22.78995 128.47671,24.51752 130.6024,26.18892 C132.76015,27.88635 134.991776,29.63995 139.390909,29.63995 L139.390909,29.39883 C135.078197,29.39883 132.881419,27.67126 130.755728,25.99986 C128.596585,24.3038 126.364959,22.54883 121.96722,22.54883 Z" id="Shape"></path>
                <rect id="Rectangle-path" x="139.389515" y="35.92277" width="1" height="1"></rect>
                <path d="M121.96722,29.07277 C117.568086,29.07277 115.33646,30.82774 113.178711,32.5238 C111.054414,34.1952 108.856242,35.92277 104.54353,35.92277 C100.230819,35.92277 98.0340398,34.1952 95.9083497,32.5238 C93.7506,30.82637 91.5189739,29.07277 87.1198408,29.07277 C82.7207077,29.07277 80.4890815,30.82774 78.3313318,32.5238 C76.2070356,34.1952 74.008863,35.92277 69.6961514,35.92277 C65.3834398,35.92277 63.186661,34.1952 61.0609709,32.5238 C58.9032212,30.82637 56.6715951,29.07277 52.272462,29.07277 C47.8733289,29.07277 45.6417028,30.82774 43.4839531,32.5238 C41.3596569,34.1952 39.1614842,35.92277 34.8487726,35.92277 C30.536061,35.92277 28.3378884,34.1952 26.2135922,32.5238 C24.0558425,30.82637 21.8242164,29.07277 17.4250833,29.07277 C13.0259502,29.07277 10.794324,30.82774 8.63657435,32.5238 C6.51088425,34.1952 4.31410549,35.92277 0.00139389515,35.92277 L0.00139389515,36.16389 C4.40052699,36.16389 6.63215312,34.40892 8.78990282,32.71286 C10.9155929,31.04146 13.1123717,29.31389 17.4250833,29.31389 C21.7377949,29.31389 23.9359675,31.04146 26.0602637,32.71286 C28.2180134,34.41029 30.4496395,36.16389 34.8487726,36.16389 C39.2479057,36.16389 41.4795319,34.40892 43.6372816,32.71286 C45.7615778,31.04146 47.9597504,29.31389 52.272462,29.31389 C56.5851736,29.31389 58.7819524,31.04146 60.9076425,32.71286 C63.0653922,34.41029 65.2970183,36.16389 69.6961514,36.16389 C74.0952845,36.16389 76.3269106,34.40892 78.4846603,32.71286 C80.6089565,31.04146 82.8071292,29.31389 87.1198408,29.31389 C91.4325524,29.31389 93.6293311,31.04146 95.7550212,32.71286 C97.9127709,34.41029 100.144397,36.16389 104.54353,36.16389 C108.942663,36.16389 111.174289,34.40892 113.332039,32.71286 C115.456335,31.04146 117.654508,29.31389 121.96722,29.31389 C126.279931,29.31389 128.47671,31.04146 130.6024,32.71286 C132.76015,34.41029 134.991776,36.16389 139.390909,36.16389 L139.390909,35.92277 C135.078197,35.92277 132.881419,34.1952 130.755728,32.5238 C128.596585,30.82774 126.364959,29.07277 121.96722,29.07277 Z" id="Shape"></path>
                <rect id="Rectangle-path" x="139.389515" y="42.44671" width="1" height="1"></rect>
                <path d="M121.96722,35.59671 C117.568086,35.59671 115.33646,37.35168 113.178711,39.04774 C111.054414,40.71914 108.856242,42.44671 104.54353,42.44671 C100.230819,42.44671 98.0340398,40.71914 95.9083497,39.04774 C93.7506,37.35031 91.5189739,35.59671 87.1198408,35.59671 C82.7207077,35.59671 80.4890815,37.35168 78.3313318,39.04774 C76.2070356,40.71914 74.008863,42.44671 69.6961514,42.44671 C65.3834398,42.44671 63.186661,40.71914 61.0609709,39.04774 C58.9032212,37.35031 56.6715951,35.59671 52.272462,35.59671 C47.8733289,35.59671 45.6417028,37.35168 43.4839531,39.04774 C41.3596569,40.71914 39.1614842,42.44671 34.8487726,42.44671 C30.536061,42.44671 28.3378884,40.71914 26.2135922,39.04774 C24.0558425,37.35031 21.8242164,35.59671 17.4250833,35.59671 C13.0259502,35.59671 10.794324,37.35168 8.63657435,39.04774 C6.51088425,40.71914 4.31410549,42.44671 0.00139389515,42.44671 L0.00139389515,42.68783 C4.40052699,42.68783 6.63215312,40.93286 8.78990282,39.2368 C10.9155929,37.5654 13.1123717,35.83783 17.4250833,35.83783 C21.7377949,35.83783 23.9359675,37.5654 26.0602637,39.2368 C28.2180134,40.93423 30.4496395,42.68783 34.8487726,42.68783 C39.2479057,42.68783 41.4795319,40.93286 43.6372816,39.2368 C45.7615778,37.5654 47.9597504,35.83783 52.272462,35.83783 C56.5851736,35.83783 58.7819524,37.5654 60.9076425,39.2368 C63.0653922,40.93423 65.2970183,42.68783 69.6961514,42.68783 C74.0952845,42.68783 76.3269106,40.93286 78.4846603,39.2368 C80.6089565,37.5654 82.8071292,35.83783 87.1198408,35.83783 C91.4325524,35.83783 93.6293311,37.5654 95.7550212,39.2368 C97.9127709,40.93423 100.144397,42.68783 104.54353,42.68783 C108.942663,42.68783 111.174289,40.93286 113.332039,39.2368 C115.456335,37.5654 117.654508,35.83783 121.96722,35.83783 C126.279931,35.83783 128.47671,37.5654 130.6024,39.2368 C132.76015,40.93423 134.991776,42.68783 139.390909,42.68783 L139.390909,42.44671 C135.078197,42.44671 132.881419,40.71914 130.755728,39.04774 C128.596585,37.35168 126.364959,35.59671 121.96722,35.59671 Z" id="Shape"></path>
                <rect id="Rectangle-path" x="139.389515" y="48.97065" width="1" height="1"></rect>
                <path d="M121.96722,42.12065 C117.568086,42.12065 115.33646,43.87562 113.178711,45.57168 C111.054414,47.24308 108.856242,48.97065 104.54353,48.97065 C100.230819,48.97065 98.0340398,47.24308 95.9083497,45.57168 C93.7506,43.87425 91.5189739,42.12065 87.1198408,42.12065 C82.7207077,42.12065 80.4890815,43.87562 78.3313318,45.57168 C76.2070356,47.24308 74.008863,48.97065 69.6961514,48.97065 C65.3834398,48.97065 63.186661,47.24308 61.0609709,45.57168 C58.9032212,43.87425 56.6715951,42.12065 52.272462,42.12065 C47.8733289,42.12065 45.6417028,43.87562 43.4839531,45.57168 C41.3596569,47.24308 39.1614842,48.97065 34.8487726,48.97065 C30.536061,48.97065 28.3378884,47.24308 26.2135922,45.57168 C24.0558425,43.87425 21.8242164,42.12065 17.4250833,42.12065 C13.0259502,42.12065 10.794324,43.87562 8.63657435,45.57168 C6.51088425,47.24308 4.31410549,48.97065 0.00139389515,48.97065 L0.00139389515,49.21177 C4.40052699,49.21177 6.63215312,47.4568 8.78990282,45.76074 C10.9155929,44.08934 13.1123717,42.36177 17.4250833,42.36177 C21.7377949,42.36177 23.9359675,44.08934 26.0602637,45.76074 C28.2180134,47.45817 30.4496395,49.21177 34.8487726,49.21177 C39.2479057,49.21177 41.4795319,47.4568 43.6372816,45.76074 C45.7615778,44.08934 47.9597504,42.36177 52.272462,42.36177 C56.5851736,42.36177 58.7819524,44.08934 60.9076425,45.76074 C63.0653922,47.45817 65.2970183,49.21177 69.6961514,49.21177 C74.0952845,49.21177 76.3269106,47.4568 78.4846603,45.76074 C80.6089565,44.08934 82.8071292,42.36177 87.1198408,42.36177 C91.4325524,42.36177 93.6293311,44.08934 95.7550212,45.76074 C97.9127709,47.45817 100.144397,49.21177 104.54353,49.21177 C108.942663,49.21177 111.174289,47.4568 113.332039,45.76074 C115.456335,44.08934 117.654508,42.36177 121.96722,42.36177 C126.279931,42.36177 128.47671,44.08934 130.6024,45.76074 C132.76015,47.45817 134.991776,49.21177 139.390909,49.21177 L139.390909,48.97065 C135.078197,48.97065 132.881419,47.24308 130.755728,45.57168 C128.596585,43.87562 126.364959,42.12065 121.96722,42.12065 Z" id="Shape"></path>
                <rect id="Rectangle-path" x="139.389515" y="55.49459" width="1" height="1"></rect>
                <path d="M121.96722,48.64459 C117.568086,48.64459 115.33646,50.39956 113.178711,52.09562 C111.054414,53.76702 108.856242,55.49459 104.54353,55.49459 C100.230819,55.49459 98.0340398,53.76702 95.9083497,52.09562 C93.7506,50.39819 91.5189739,48.64459 87.1198408,48.64459 C82.7207077,48.64459 80.4890815,50.39956 78.3313318,52.09562 C76.2070356,53.76702 74.008863,55.49459 69.6961514,55.49459 C65.3834398,55.49459 63.186661,53.76702 61.0609709,52.09562 C58.9032212,50.39819 56.6715951,48.64459 52.272462,48.64459 C47.8733289,48.64459 45.6417028,50.39956 43.4839531,52.09562 C41.3596569,53.76702 39.1614842,55.49459 34.8487726,55.49459 C30.536061,55.49459 28.3378884,53.76702 26.2135922,52.09562 C24.0558425,50.39819 21.8242164,48.64459 17.4250833,48.64459 C13.0259502,48.64459 10.794324,50.39956 8.63657435,52.09562 C6.51088425,53.76702 4.31410549,55.49459 0.00139389515,55.49459 L0.00139389515,55.73571 C4.40052699,55.73571 6.63215312,53.98074 8.78990282,52.28468 C10.9155929,50.61328 13.1123717,48.88571 17.4250833,48.88571 C21.7377949,48.88571 23.9359675,50.61328 26.0602637,52.28468 C28.2180134,53.98211 30.4496395,55.73571 34.8487726,55.73571 C39.2479057,55.73571 41.4795319,53.98074 43.6372816,52.28468 C45.7615778,50.61328 47.9597504,48.88571 52.272462,48.88571 C56.5851736,48.88571 58.7819524,50.61328 60.9076425,52.28468 C63.0653922,53.98211 65.2970183,55.73571 69.6961514,55.73571 C74.0952845,55.73571 76.3269106,53.98074 78.4846603,52.28468 C80.6089565,50.61328 82.8071292,48.88571 87.1198408,48.88571 C91.4325524,48.88571 93.6293311,50.61328 95.7550212,52.28468 C97.9127709,53.98211 100.144397,55.73571 104.54353,55.73571 C108.942663,55.73571 111.174289,53.98074 113.332039,52.28468 C115.456335,50.61328 117.654508,48.88571 121.96722,48.88571 C126.279931,48.88571 128.47671,50.61328 130.6024,52.28468 C132.76015,53.98211 134.991776,55.73571 139.390909,55.73571 L139.390909,55.49459 C135.078197,55.49459 132.881419,53.76702 130.755728,52.09562 C128.596585,50.39956 126.364959,48.64459 121.96722,48.64459 Z" id="Shape"></path>
                <rect id="Rectangle-path" x="139.389515" y="62.01853" width="1" height="1"></rect>
                <path d="M121.96722,55.16853 C117.568086,55.16853 115.33646,56.9235 113.178711,58.61956 C111.054414,60.29096 108.856242,62.01853 104.54353,62.01853 C100.230819,62.01853 98.0340398,60.29096 95.9083497,58.61956 C93.7506,56.92213 91.5189739,55.16853 87.1198408,55.16853 C82.7207077,55.16853 80.4890815,56.9235 78.3313318,58.61956 C76.2070356,60.29096 74.008863,62.01853 69.6961514,62.01853 C65.3834398,62.01853 63.186661,60.29096 61.0609709,58.61956 C58.9032212,56.92213 56.6715951,55.16853 52.272462,55.16853 C47.8733289,55.16853 45.6417028,56.9235 43.4839531,58.61956 C41.3596569,60.29096 39.1614842,62.01853 34.8487726,62.01853 C30.536061,62.01853 28.3378884,60.29096 26.2135922,58.61956 C24.0558425,56.92213 21.8242164,55.16853 17.4250833,55.16853 C13.0259502,55.16853 10.794324,56.9235 8.63657435,58.61956 C6.51088425,60.29096 4.31410549,62.01853 0.00139389515,62.01853 L0.00139389515,62.25965 C4.40052699,62.25965 6.63215312,60.50468 8.78990282,58.80862 C10.9155929,57.13722 13.1123717,55.40965 17.4250833,55.40965 C21.7377949,55.40965 23.9359675,57.13722 26.0602637,58.80862 C28.2180134,60.50605 30.4496395,62.25965 34.8487726,62.25965 C39.2479057,62.25965 41.4795319,60.50468 43.6372816,58.80862 C45.7615778,57.13722 47.9597504,55.40965 52.272462,55.40965 C56.5851736,55.40965 58.7819524,57.13722 60.9076425,58.80862 C63.0653922,60.50605 65.2970183,62.25965 69.6961514,62.25965 C74.0952845,62.25965 76.3269106,60.50468 78.4846603,58.80862 C80.6089565,57.13722 82.8071292,55.40965 87.1198408,55.40965 C91.4325524,55.40965 93.6293311,57.13722 95.7550212,58.80862 C97.9127709,60.50605 100.144397,62.25965 104.54353,62.25965 C108.942663,62.25965 111.174289,60.50468 113.332039,58.80862 C115.456335,57.13722 117.654508,55.40965 121.96722,55.40965 C126.279931,55.40965 128.47671,57.13722 130.6024,58.80862 C132.76015,60.50605 134.991776,62.25965 139.390909,62.25965 L139.390909,62.01853 C135.078197,62.01853 132.881419,60.29096 130.755728,58.61956 C128.596585,56.9235 126.364959,55.16853 121.96722,55.16853 Z" id="Shape"></path>
                <rect id="Rectangle-path" x="139.389515" y="68.54247" width="1" height="1"></rect>
                <path d="M121.96722,61.69247 C117.568086,61.69247 115.33646,63.44744 113.178711,65.1435 C111.054414,66.8149 108.856242,68.54247 104.54353,68.54247 C100.230819,68.54247 98.0340398,66.8149 95.9083497,65.1435 C93.7506,63.44607 91.5189739,61.69247 87.1198408,61.69247 C82.7207077,61.69247 80.4890815,63.44744 78.3313318,65.1435 C76.2070356,66.8149 74.008863,68.54247 69.6961514,68.54247 C65.3834398,68.54247 63.186661,66.8149 61.0609709,65.1435 C58.9032212,63.44607 56.6715951,61.69247 52.272462,61.69247 C47.8733289,61.69247 45.6417028,63.44744 43.4839531,65.1435 C41.3596569,66.8149 39.1614842,68.54247 34.8487726,68.54247 C30.536061,68.54247 28.3378884,66.8149 26.2135922,65.1435 C24.0558425,63.44607 21.8242164,61.69247 17.4250833,61.69247 C13.0259502,61.69247 10.794324,63.44744 8.63657435,65.1435 C6.51088425,66.8149 4.31410549,68.54247 0.00139389515,68.54247 L0.00139389515,68.78359 C4.40052699,68.78359 6.63215312,67.02862 8.78990282,65.33256 C10.9155929,63.66116 13.1123717,61.93359 17.4250833,61.93359 C21.7377949,61.93359 23.9359675,63.66116 26.0602637,65.33256 C28.2180134,67.02999 30.4496395,68.78359 34.8487726,68.78359 C39.2479057,68.78359 41.4795319,67.02862 43.6372816,65.33256 C45.7615778,63.66116 47.9597504,61.93359 52.272462,61.93359 C56.5851736,61.93359 58.7819524,63.66116 60.9076425,65.33256 C63.0653922,67.02999 65.2970183,68.78359 69.6961514,68.78359 C74.0952845,68.78359 76.3269106,67.02862 78.4846603,65.33256 C80.6089565,63.66116 82.8071292,61.93359 87.1198408,61.93359 C91.4325524,61.93359 93.6293311,63.66116 95.7550212,65.33256 C97.9127709,67.02999 100.144397,68.78359 104.54353,68.78359 C108.942663,68.78359 111.174289,67.02862 113.332039,65.33256 C115.456335,63.66116 117.654508,61.93359 121.96722,61.93359 C126.279931,61.93359 128.47671,63.66116 130.6024,65.33256 C132.76015,67.02999 134.991776,68.78359 139.390909,68.78359 L139.390909,68.54247 C135.078197,68.54247 132.881419,66.8149 130.755728,65.1435 C128.596585,63.44744 126.364959,61.69247 121.96722,61.69247 Z" id="Shape"></path>
                <rect id="Rectangle-path" x="139.389515" y="75.06641" width="1" height="1"></rect>
                <path d="M121.96722,68.21641 C117.568086,68.21641 115.33646,69.97138 113.178711,71.66744 C111.054414,73.33884 108.856242,75.06641 104.54353,75.06641 C100.230819,75.06641 98.0340398,73.33884 95.9083497,71.66744 C93.7506,69.97001 91.5189739,68.21641 87.1198408,68.21641 C82.7207077,68.21641 80.4890815,69.97138 78.3313318,71.66744 C76.2070356,73.33884 74.008863,75.06641 69.6961514,75.06641 C65.3834398,75.06641 63.186661,73.33884 61.0609709,71.66744 C58.9032212,69.97001 56.6715951,68.21641 52.272462,68.21641 C47.8733289,68.21641 45.6417028,69.97138 43.4839531,71.66744 C41.3596569,73.33884 39.1614842,75.06641 34.8487726,75.06641 C30.536061,75.06641 28.3378884,73.33884 26.2135922,71.66744 C24.0558425,69.97001 21.8242164,68.21641 17.4250833,68.21641 C13.0259502,68.21641 10.794324,69.97138 8.63657435,71.66744 C6.51088425,73.33884 4.31410549,75.06641 0.00139389515,75.06641 L0.00139389515,75.30753 C4.40052699,75.30753 6.63215312,73.55256 8.78990282,71.8565 C10.9155929,70.1851 13.1123717,68.45753 17.4250833,68.45753 C21.7377949,68.45753 23.9359675,70.1851 26.0602637,71.8565 C28.2180134,73.55393 30.4496395,75.30753 34.8487726,75.30753 C39.2479057,75.30753 41.4795319,73.55256 43.6372816,71.8565 C45.7615778,70.1851 47.9597504,68.45753 52.272462,68.45753 C56.5851736,68.45753 58.7819524,70.1851 60.9076425,71.8565 C63.0653922,73.55393 65.2970183,75.30753 69.6961514,75.30753 C74.0952845,75.30753 76.3269106,73.55256 78.4846603,71.8565 C80.6089565,70.1851 82.8071292,68.45753 87.1198408,68.45753 C91.4325524,68.45753 93.6293311,70.1851 95.7550212,71.8565 C97.9127709,73.55393 100.144397,75.30753 104.54353,75.30753 C108.942663,75.30753 111.174289,73.55256 113.332039,71.8565 C115.456335,70.1851 117.654508,68.45753 121.96722,68.45753 C126.279931,68.45753 128.47671,70.1851 130.6024,71.8565 C132.76015,73.55393 134.991776,75.30753 139.390909,75.30753 L139.390909,75.06641 C135.078197,75.06641 132.881419,73.33884 130.755728,71.66744 C128.596585,69.97001 126.364959,68.21641 121.96722,68.21641 Z" id="Shape"></path>
                <rect id="Rectangle-path" x="139.389515" y="81.59035" width="1" height="1"></rect>
                <path d="M121.96722,74.74035 C117.568086,74.74035 115.33646,76.49532 113.178711,78.19138 C111.054414,79.86278 108.856242,81.59035 104.54353,81.59035 C100.230819,81.59035 98.0340398,79.86278 95.9083497,78.19138 C93.7506,76.49395 91.5189739,74.74035 87.1198408,74.74035 C82.7207077,74.74035 80.4890815,76.49532 78.3313318,78.19138 C76.2070356,79.86278 74.008863,81.59035 69.6961514,81.59035 C65.3834398,81.59035 63.186661,79.86278 61.0609709,78.19138 C58.9032212,76.49395 56.6715951,74.74035 52.272462,74.74035 C47.8733289,74.74035 45.6417028,76.49532 43.4839531,78.19138 C41.3596569,79.86278 39.1614842,81.59035 34.8487726,81.59035 C30.536061,81.59035 28.3378884,79.86278 26.2135922,78.19138 C24.0558425,76.49395 21.8242164,74.74035 17.4250833,74.74035 C13.0259502,74.74035 10.794324,76.49532 8.63657435,78.19138 C6.51088425,79.86278 4.31410549,81.59035 0.00139389515,81.59035 L0.00139389515,81.83147 C4.40052699,81.83147 6.63215312,80.0765 8.78990282,78.38044 C10.9155929,76.70904 13.1123717,74.98147 17.4250833,74.98147 C21.7377949,74.98147 23.9359675,76.70904 26.0602637,78.38044 C28.2180134,80.07787 30.4496395,81.83147 34.8487726,81.83147 C39.2479057,81.83147 41.4795319,80.0765 43.6372816,78.38044 C45.7615778,76.70904 47.9597504,74.98147 52.272462,74.98147 C56.5851736,74.98147 58.7819524,76.70904 60.9076425,78.38044 C63.0653922,80.07787 65.2970183,81.83147 69.6961514,81.83147 C74.0952845,81.83147 76.3269106,80.0765 78.4846603,78.38044 C80.6089565,76.70904 82.8071292,74.98147 87.1198408,74.98147 C91.4325524,74.98147 93.6293311,76.70904 95.7550212,78.38044 C97.9127709,80.07787 100.144397,81.83147 104.54353,81.83147 C108.942663,81.83147 111.174289,80.0765 113.332039,78.38044 C115.456335,76.70904 117.654508,74.98147 121.96722,74.98147 C126.279931,74.98147 128.47671,76.70904 130.6024,78.38044 C132.76015,80.07787 134.991776,81.83147 139.390909,81.83147 L139.390909,81.59035 C135.078197,81.59035 132.881419,79.86278 130.755728,78.19138 C128.596585,76.49395 126.364959,74.74035 121.96722,74.74035 Z" id="Shape"></path>
                <rect id="Rectangle-path" x="139.389515" y="88.11429" width="1" height="1"></rect>
                <path d="M121.96722,81.26429 C117.568086,81.26429 115.33646,83.01926 113.178711,84.71532 C111.054414,86.38672 108.856242,88.11429 104.54353,88.11429 C100.230819,88.11429 98.0340398,86.38672 95.9083497,84.71532 C93.7506,83.01789 91.5189739,81.26429 87.1198408,81.26429 C82.7207077,81.26429 80.4890815,83.01926 78.3313318,84.71532 C76.2070356,86.38672 74.008863,88.11429 69.6961514,88.11429 C65.3834398,88.11429 63.186661,86.38672 61.0609709,84.71532 C58.9032212,83.01789 56.6715951,81.26429 52.272462,81.26429 C47.8733289,81.26429 45.6417028,83.01926 43.4839531,84.71532 C41.3596569,86.38672 39.1614842,88.11429 34.8487726,88.11429 C30.536061,88.11429 28.3378884,86.38672 26.2135922,84.71532 C24.0558425,83.01789 21.8242164,81.26429 17.4250833,81.26429 C13.0259502,81.26429 10.794324,83.01926 8.63657435,84.71532 C6.51088425,86.38672 4.31410549,88.11429 0.00139389515,88.11429 L0.00139389515,88.35541 C4.40052699,88.35541 6.63215312,86.60044 8.78990282,84.90438 C10.9155929,83.23298 13.1123717,81.50541 17.4250833,81.50541 C21.7377949,81.50541 23.9359675,83.23298 26.0602637,84.90438 C28.2180134,86.60181 30.4496395,88.35541 34.8487726,88.35541 C39.2479057,88.35541 41.4795319,86.60044 43.6372816,84.90438 C45.7615778,83.23298 47.9597504,81.50541 52.272462,81.50541 C56.5851736,81.50541 58.7819524,83.23298 60.9076425,84.90438 C63.0653922,86.60181 65.2970183,88.35541 69.6961514,88.35541 C74.0952845,88.35541 76.3269106,86.60044 78.4846603,84.90438 C80.6089565,83.23298 82.8071292,81.50541 87.1198408,81.50541 C91.4325524,81.50541 93.6293311,83.23298 95.7550212,84.90438 C97.9127709,86.60181 100.144397,88.35541 104.54353,88.35541 C108.942663,88.35541 111.174289,86.60044 113.332039,84.90438 C115.456335,83.23298 117.654508,81.50541 121.96722,81.50541 C126.279931,81.50541 128.47671,83.23298 130.6024,84.90438 C132.76015,86.60181 134.991776,88.35541 139.390909,88.35541 L139.390909,88.11429 C135.078197,88.11429 132.881419,86.38672 130.755728,84.71532 C128.596585,83.01789 126.364959,81.26429 121.96722,81.26429 Z" id="Shape"></path>
                <rect id="Rectangle-path" x="139.389515" y="94.63686" width="1" height="1"></rect>
                <path d="M121.96722,87.78686 C117.568086,87.78686 115.33646,89.54183 113.178711,91.23789 C111.054414,92.90929 108.856242,94.63686 104.54353,94.63686 C100.230819,94.63686 98.0340398,92.90929 95.9083497,91.23789 C93.7506,89.54046 91.5189739,87.78686 87.1198408,87.78686 C82.7207077,87.78686 80.4890815,89.54183 78.3313318,91.23789 C76.2070356,92.90929 74.008863,94.63686 69.6961514,94.63686 C65.3834398,94.63686 63.186661,92.90929 61.0609709,91.23789 C58.9032212,89.54046 56.6715951,87.78686 52.272462,87.78686 C47.8733289,87.78686 45.6417028,89.54183 43.4839531,91.23789 C41.3596569,92.90929 39.1614842,94.63686 34.8487726,94.63686 C30.536061,94.63686 28.3378884,92.90929 26.2135922,91.23789 C24.0558425,89.54046 21.8242164,87.78686 17.4250833,87.78686 C13.0259502,87.78686 10.794324,89.54183 8.63657435,91.23789 C6.51088425,92.90929 4.31410549,94.63686 0.00139389515,94.63686 L0.00139389515,94.87798 C4.40052699,94.87798 6.63215312,93.12301 8.78990282,91.42695 C10.9155929,89.75555 13.1123717,88.02798 17.4250833,88.02798 C21.7377949,88.02798 23.9359675,89.75555 26.0602637,91.42695 C28.2180134,93.12438 30.4496395,94.87798 34.8487726,94.87798 C39.2479057,94.87798 41.4795319,93.12301 43.6372816,91.42695 C45.7615778,89.75555 47.9597504,88.02798 52.272462,88.02798 C56.5851736,88.02798 58.7819524,89.75555 60.9076425,91.42695 C63.0653922,93.12438 65.2970183,94.87798 69.6961514,94.87798 C74.0952845,94.87798 76.3269106,93.12301 78.4846603,91.42695 C80.6089565,89.75555 82.8071292,88.02798 87.1198408,88.02798 C91.4325524,88.02798 93.6293311,89.75555 95.7550212,91.42695 C97.9127709,93.12438 100.144397,94.87798 104.54353,94.87798 C108.942663,94.87798 111.174289,93.12301 113.332039,91.42695 C115.456335,89.75555 117.654508,88.02798 121.96722,88.02798 C126.279931,88.02798 128.47671,89.75555 130.6024,91.42695 C132.76015,93.12438 134.991776,94.87798 139.390909,94.87798 L139.390909,94.63686 C135.078197,94.63686 132.881419,92.90929 130.755728,91.23789 C128.596585,89.54183 126.364959,87.78686 121.96722,87.78686 Z" id="Shape"></path>
                <rect id="Rectangle-path" x="139.389515" y="101.1608" width="1" height="1"></rect>
                <path d="M121.96722,94.3108 C117.568086,94.3108 115.33646,96.06577 113.178711,97.76183 C111.054414,99.43323 108.856242,101.1608 104.54353,101.1608 C100.230819,101.1608 98.0340398,99.43323 95.9083497,97.76183 C93.7506,96.0644 91.5189739,94.3108 87.1198408,94.3108 C82.7207077,94.3108 80.4890815,96.06577 78.3313318,97.76183 C76.2070356,99.43323 74.008863,101.1608 69.6961514,101.1608 C65.3834398,101.1608 63.186661,99.43323 61.0609709,97.76183 C58.9032212,96.0644 56.6715951,94.3108 52.272462,94.3108 C47.8733289,94.3108 45.6417028,96.06577 43.4839531,97.76183 C41.3596569,99.43323 39.1614842,101.1608 34.8487726,101.1608 C30.536061,101.1608 28.3378884,99.43323 26.2135922,97.76183 C24.0558425,96.0644 21.8242164,94.3108 17.4250833,94.3108 C13.0259502,94.3108 10.794324,96.06577 8.63657435,97.76183 C6.51088425,99.43323 4.31410549,101.1608 0.00139389515,101.1608 L0.00139389515,101.40192 C4.40052699,101.40192 6.63215312,99.64695 8.78990282,97.95089 C10.9155929,96.27949 13.1123717,94.55192 17.4250833,94.55192 C21.7377949,94.55192 23.9359675,96.27949 26.0602637,97.95089 C28.2180134,99.64832 30.4496395,101.40192 34.8487726,101.40192 C39.2479057,101.40192 41.4795319,99.64695 43.6372816,97.95089 C45.7615778,96.27949 47.9597504,94.55192 52.272462,94.55192 C56.5851736,94.55192 58.7819524,96.27949 60.9076425,97.95089 C63.0653922,99.64832 65.2970183,101.40192 69.6961514,101.40192 C74.0952845,101.40192 76.3269106,99.64695 78.4846603,97.95089 C80.6089565,96.27949 82.8071292,94.55192 87.1198408,94.55192 C91.4325524,94.55192 93.6293311,96.27949 95.7550212,97.95089 C97.9127709,99.64832 100.144397,101.40192 104.54353,101.40192 C108.942663,101.40192 111.174289,99.64695 113.332039,97.95089 C115.456335,96.27949 117.654508,94.55192 121.96722,94.55192 C126.279931,94.55192 128.47671,96.27949 130.6024,97.95089 C132.76015,99.64832 134.991776,101.40192 139.390909,101.40192 L139.390909,101.1608 C135.078197,101.1608 132.881419,99.43323 130.755728,97.76183 C128.596585,96.06577 126.364959,94.3108 121.96722,94.3108 Z" id="Shape"></path>
                <rect id="Rectangle-path" x="139.389515" y="107.68474" width="1" height="1"></rect>
                <path d="M121.96722,100.83474 C117.568086,100.83474 115.33646,102.58971 113.178711,104.28577 C111.054414,105.95717 108.856242,107.68474 104.54353,107.68474 C100.230819,107.68474 98.0340398,105.95717 95.9083497,104.28577 C93.7506,102.58834 91.5189739,100.83474 87.1198408,100.83474 C82.7207077,100.83474 80.4890815,102.58971 78.3313318,104.28577 C76.2070356,105.95717 74.008863,107.68474 69.6961514,107.68474 C65.3834398,107.68474 63.186661,105.95717 61.0609709,104.28577 C58.9032212,102.58834 56.6715951,100.83474 52.272462,100.83474 C47.8733289,100.83474 45.6417028,102.58971 43.4839531,104.28577 C41.3596569,105.95717 39.1614842,107.68474 34.8487726,107.68474 C30.536061,107.68474 28.3378884,105.95717 26.2135922,104.28577 C24.0558425,102.58834 21.8242164,100.83474 17.4250833,100.83474 C13.0259502,100.83474 10.794324,102.58971 8.63657435,104.28577 C6.51088425,105.95717 4.31410549,107.68474 0.00139389515,107.68474 L0.00139389515,107.92586 C4.40052699,107.92586 6.63215312,106.17089 8.78990282,104.47483 C10.9155929,102.80343 13.1123717,101.07586 17.4250833,101.07586 C21.7377949,101.07586 23.9359675,102.80343 26.0602637,104.47483 C28.2180134,106.17226 30.4496395,107.92586 34.8487726,107.92586 C39.2479057,107.92586 41.4795319,106.17089 43.6372816,104.47483 C45.7615778,102.80343 47.9597504,101.07586 52.272462,101.07586 C56.5851736,101.07586 58.7819524,102.80343 60.9076425,104.47483 C63.0653922,106.17226 65.2970183,107.92586 69.6961514,107.92586 C74.0952845,107.92586 76.3269106,106.17089 78.4846603,104.47483 C80.6089565,102.80343 82.8071292,101.07586 87.1198408,101.07586 C91.4325524,101.07586 93.6293311,102.80343 95.7550212,104.47483 C97.9127709,106.17226 100.144397,107.92586 104.54353,107.92586 C108.942663,107.92586 111.174289,106.17089 113.332039,104.47483 C115.456335,102.80343 117.654508,101.07586 121.96722,101.07586 C126.279931,101.07586 128.47671,102.80343 130.6024,104.47483 C132.76015,106.17226 134.991776,107.92586 139.390909,107.92586 L139.390909,107.68474 C135.078197,107.68474 132.881419,105.95717 130.755728,104.28577 C128.596585,102.58971 126.364959,100.83474 121.96722,100.83474 Z" id="Shape"></path>
                <rect id="Rectangle-path" x="139.389515" y="114.20868" width="1" height="1"></rect>
                <path d="M121.96722,107.35868 C117.568086,107.35868 115.33646,109.11365 113.178711,110.80971 C111.054414,112.48111 108.856242,114.20868 104.54353,114.20868 C100.230819,114.20868 98.0340398,112.48111 95.9083497,110.80971 C93.7506,109.11228 91.5189739,107.35868 87.1198408,107.35868 C82.7207077,107.35868 80.4890815,109.11365 78.3313318,110.80971 C76.2070356,112.48111 74.008863,114.20868 69.6961514,114.20868 C65.3834398,114.20868 63.186661,112.48111 61.0609709,110.80971 C58.9032212,109.11228 56.6715951,107.35868 52.272462,107.35868 C47.8733289,107.35868 45.6417028,109.11365 43.4839531,110.80971 C41.3596569,112.48111 39.1614842,114.20868 34.8487726,114.20868 C30.536061,114.20868 28.3378884,112.48111 26.2135922,110.80971 C24.0558425,109.11228 21.8242164,107.35868 17.4250833,107.35868 C13.0259502,107.35868 10.794324,109.11365 8.63657435,110.80971 C6.51088425,112.48111 4.31410549,114.20868 0.00139389515,114.20868 L0.00139389515,114.4498 C4.40052699,114.4498 6.63215312,112.69483 8.78990282,110.99877 C10.9155929,109.32737 13.1123717,107.5998 17.4250833,107.5998 C21.7377949,107.5998 23.9359675,109.32737 26.0602637,110.99877 C28.2180134,112.6962 30.4496395,114.4498 34.8487726,114.4498 C39.2479057,114.4498 41.4795319,112.69483 43.6372816,110.99877 C45.7615778,109.32737 47.9597504,107.5998 52.272462,107.5998 C56.5851736,107.5998 58.7819524,109.32737 60.9076425,110.99877 C63.0653922,112.6962 65.2970183,114.4498 69.6961514,114.4498 C74.0952845,114.4498 76.3269106,112.69483 78.4846603,110.99877 C80.6089565,109.32737 82.8071292,107.5998 87.1198408,107.5998 C91.4325524,107.5998 93.6293311,109.32737 95.7550212,110.99877 C97.9127709,112.6962 100.144397,114.4498 104.54353,114.4498 C108.942663,114.4498 111.174289,112.69483 113.332039,110.99877 C115.456335,109.32737 117.654508,107.5998 121.96722,107.5998 C126.279931,107.5998 128.47671,109.32737 130.6024,110.99877 C132.76015,112.6962 134.991776,114.4498 139.390909,114.4498 L139.390909,114.20868 C135.078197,114.20868 132.881419,112.48111 130.755728,110.80971 C128.596585,109.11365 126.364959,107.35868 121.96722,107.35868 Z" id="Shape"></path>
                <rect id="Rectangle-path" x="139.389515" y="120.73262" width="1" height="1"></rect>
                <path d="M121.96722,113.88262 C117.568086,113.88262 115.33646,115.63759 113.178711,117.33365 C111.054414,119.00505 108.856242,120.73262 104.54353,120.73262 C100.230819,120.73262 98.0340398,119.00505 95.9083497,117.33365 C93.7506,115.63622 91.5189739,113.88262 87.1198408,113.88262 C82.7207077,113.88262 80.4890815,115.63759 78.3313318,117.33365 C76.2070356,119.00505 74.008863,120.73262 69.6961514,120.73262 C65.3834398,120.73262 63.186661,119.00505 61.0609709,117.33365 C58.9032212,115.63622 56.6715951,113.88262 52.272462,113.88262 C47.8733289,113.88262 45.6417028,115.63759 43.4839531,117.33365 C41.3596569,119.00505 39.1614842,120.73262 34.8487726,120.73262 C30.536061,120.73262 28.3378884,119.00505 26.2135922,117.33365 C24.0558425,115.63622 21.8242164,113.88262 17.4250833,113.88262 C13.0259502,113.88262 10.794324,115.63759 8.63657435,117.33365 C6.51088425,119.00505 4.31410549,120.73262 0.00139389515,120.73262 L0.00139389515,120.97374 C4.40052699,120.97374 6.63215312,119.21877 8.78990282,117.52271 C10.9155929,115.85131 13.1123717,114.12374 17.4250833,114.12374 C21.7377949,114.12374 23.9359675,115.85131 26.0602637,117.52271 C28.2180134,119.22014 30.4496395,120.97374 34.8487726,120.97374 C39.2479057,120.97374 41.4795319,119.21877 43.6372816,117.52271 C45.7615778,115.85131 47.9597504,114.12374 52.272462,114.12374 C56.5851736,114.12374 58.7819524,115.85131 60.9076425,117.52271 C63.0653922,119.22014 65.2970183,120.97374 69.6961514,120.97374 C74.0952845,120.97374 76.3269106,119.21877 78.4846603,117.52271 C80.6089565,115.85131 82.8071292,114.12374 87.1198408,114.12374 C91.4325524,114.12374 93.6293311,115.85131 95.7550212,117.52271 C97.9127709,119.22014 100.144397,120.97374 104.54353,120.97374 C108.942663,120.97374 111.174289,119.21877 113.332039,117.52271 C115.456335,115.85131 117.654508,114.12374 121.96722,114.12374 C126.279931,114.12374 128.47671,115.85131 130.6024,117.52271 C132.76015,119.22014 134.991776,120.97374 139.390909,120.97374 L139.390909,120.73262 C135.078197,120.73262 132.881419,119.00505 130.755728,117.33365 C128.596585,115.63759 126.364959,113.88262 121.96722,113.88262 Z" id="Shape"></path>
                <rect id="Rectangle-path" x="139.389515" y="127.25656" width="1" height="1"></rect>
                <path d="M121.96722,120.40656 C117.568086,120.40656 115.33646,122.16153 113.178711,123.85759 C111.054414,125.52899 108.856242,127.25656 104.54353,127.25656 C100.230819,127.25656 98.0340398,125.52899 95.9083497,123.85759 C93.7506,122.16016 91.5189739,120.40656 87.1198408,120.40656 C82.7207077,120.40656 80.4890815,122.16153 78.3313318,123.85759 C76.2070356,125.52899 74.008863,127.25656 69.6961514,127.25656 C65.3834398,127.25656 63.186661,125.52899 61.0609709,123.85759 C58.9032212,122.16016 56.6715951,120.40656 52.272462,120.40656 C47.8733289,120.40656 45.6417028,122.16153 43.4839531,123.85759 C41.3596569,125.52899 39.1614842,127.25656 34.8487726,127.25656 C30.536061,127.25656 28.3378884,125.52899 26.2135922,123.85759 C24.0558425,122.16016 21.8242164,120.40656 17.4250833,120.40656 C13.0259502,120.40656 10.794324,122.16153 8.63657435,123.85759 C6.51088425,125.52899 4.31410549,127.25656 0.00139389515,127.25656 L0.00139389515,127.49768 C4.40052699,127.49768 6.63215312,125.74271 8.78990282,124.04665 C10.9155929,122.37525 13.1123717,120.64768 17.4250833,120.64768 C21.7377949,120.64768 23.9359675,122.37525 26.0602637,124.04665 C28.2180134,125.74408 30.4496395,127.49768 34.8487726,127.49768 C39.2479057,127.49768 41.4795319,125.74271 43.6372816,124.04665 C45.7615778,122.37525 47.9597504,120.64768 52.272462,120.64768 C56.5851736,120.64768 58.7819524,122.37525 60.9076425,124.04665 C63.0653922,125.74408 65.2970183,127.49768 69.6961514,127.49768 C74.0952845,127.49768 76.3269106,125.74271 78.4846603,124.04665 C80.6089565,122.37525 82.8071292,120.64768 87.1198408,120.64768 C91.4325524,120.64768 93.6293311,122.37525 95.7550212,124.04665 C97.9127709,125.74408 100.144397,127.49768 104.54353,127.49768 C108.942663,127.49768 111.174289,125.74271 113.332039,124.04665 C115.456335,122.37525 117.654508,120.64768 121.96722,120.64768 C126.279931,120.64768 128.47671,122.37525 130.6024,124.04665 C132.76015,125.74408 134.991776,127.49768 139.390909,127.49768 L139.390909,127.25656 C135.078197,127.25656 132.881419,125.52899 130.755728,123.85759 C128.596585,122.16153 126.364959,120.40656 121.96722,120.40656 Z" id="Shape"></path>
                <rect id="Rectangle-path" x="139.389515" y="133.7805" width="1" height="1"></rect>
                <path d="M121.96722,126.9305 C117.568086,126.9305 115.33646,128.68547 113.178711,130.38153 C111.054414,132.05293 108.856242,133.7805 104.54353,133.7805 C100.230819,133.7805 98.0340398,132.05293 95.9083497,130.38153 C93.7506,128.6841 91.5189739,126.9305 87.1198408,126.9305 C82.7207077,126.9305 80.4890815,128.68547 78.3313318,130.38153 C76.2070356,132.05293 74.008863,133.7805 69.6961514,133.7805 C65.3834398,133.7805 63.186661,132.05293 61.0609709,130.38153 C58.9032212,128.6841 56.6715951,126.9305 52.272462,126.9305 C47.8733289,126.9305 45.6417028,128.68547 43.4839531,130.38153 C41.3596569,132.05293 39.1614842,133.7805 34.8487726,133.7805 C30.536061,133.7805 28.3378884,132.05293 26.2135922,130.38153 C24.0558425,128.6841 21.8242164,126.9305 17.4250833,126.9305 C13.0259502,126.9305 10.794324,128.68547 8.63657435,130.38153 C6.51088425,132.05293 4.31410549,133.7805 0.00139389515,133.7805 L0.00139389515,134.02162 C4.40052699,134.02162 6.63215312,132.26665 8.78990282,130.57059 C10.9155929,128.89919 13.1123717,127.17162 17.4250833,127.17162 C21.7377949,127.17162 23.9359675,128.89919 26.0602637,130.57059 C28.2180134,132.26802 30.4496395,134.02162 34.8487726,134.02162 C39.2479057,134.02162 41.4795319,132.26665 43.6372816,130.57059 C45.7615778,128.89919 47.9597504,127.17162 52.272462,127.17162 C56.5851736,127.17162 58.7819524,128.89919 60.9076425,130.57059 C63.0653922,132.26802 65.2970183,134.02162 69.6961514,134.02162 C74.0952845,134.02162 76.3269106,132.26665 78.4846603,130.57059 C80.6089565,128.89919 82.8071292,127.17162 87.1198408,127.17162 C91.4325524,127.17162 93.6293311,128.89919 95.7550212,130.57059 C97.9127709,132.26802 100.144397,134.02162 104.54353,134.02162 C108.942663,134.02162 111.174289,132.26665 113.332039,130.57059 C115.456335,128.89919 117.654508,127.17162 121.96722,127.17162 C126.279931,127.17162 128.47671,128.89919 130.6024,130.57059 C132.76015,132.26802 134.991776,134.02162 139.390909,134.02162 L139.390909,133.7805 C135.078197,133.7805 132.881419,132.05293 130.755728,130.38153 C128.596585,128.68547 126.364959,126.9305 121.96722,126.9305 Z" id="Shape"></path>
                <path d="M26.2135922,136.90547 C24.0558425,135.20804 21.8242164,133.45444 17.4250833,133.45444 C13.0259502,133.45444 10.794324,135.20941 8.63657435,136.90547 C8.59615139,136.93698 8.55712233,136.96849 8.51669937,137 L8.91117169,137 C10.9992266,135.35874 13.1946115,133.69556 17.4264772,133.69556 C21.6583428,133.69556 23.8537277,135.35874 25.9417826,137 L26.336255,137 C26.2930442,136.96849 26.2540151,136.93698 26.2135922,136.90547 Z" id="Shape"></path>
                <path d="M121.96722,133.45444 C117.568086,133.45444 115.33646,135.20941 113.178711,136.90547 C113.138288,136.93698 113.099259,136.96849 113.058836,137 L113.453308,137 C115.541363,135.35874 117.736748,133.69556 121.968613,133.69556 C126.200479,133.69556 128.39447,135.35874 130.482525,137 L130.875603,137 C130.83518,136.96849 130.796151,136.93698 130.755728,136.90547 C128.596585,135.20941 126.364959,133.45444 121.96722,133.45444 Z" id="Shape"></path>
                <path d="M61.0609709,136.90547 C58.9032212,135.20804 56.6715951,133.45444 52.272462,133.45444 C47.8733289,133.45444 45.6417028,135.20941 43.4839531,136.90547 C43.4435301,136.93698 43.4045011,136.96849 43.3640781,137 L43.7585504,137 C45.8466054,135.35874 48.0419902,133.69556 52.2738559,133.69556 C56.5057216,133.69556 58.6997126,135.35874 60.7891614,137 L61.1836337,137 C61.1418169,136.96849 61.1013939,136.93698 61.0609709,136.90547 Z" id="Shape"></path>
                <path d="M95.9083497,136.90547 C93.7506,135.20804 91.5189739,133.45444 87.1198408,133.45444 C82.7207077,133.45444 80.4890815,135.20941 78.3313318,136.90547 C78.2909089,136.93698 78.2518798,136.96849 78.2114569,137 L78.6059292,137 C80.6939841,135.35874 82.889369,133.69556 87.1212347,133.69556 C91.3531003,133.69556 93.5470913,135.35874 95.6365401,137 L96.0310125,137 C95.9878017,136.96849 95.9487726,136.93698 95.9083497,136.90547 Z" id="Shape"></path>
            </g>
        </g>
    </g>
</svg>